<svg width="176" height="24" viewBox="0 0 235 32" fill="none" xmlns="http://www.w3.org/2000/svg">
<path d="M161.9 10.8127V10.758C161.9 7.17203 164.524 4.24303 168.291 4.24303C172.059 4.24303 174.738 7.22678 174.738 10.8127V10.8675C174.738 11.9077 174.515 12.8932 174.152 13.7417L171.808 11.6887C171.334 11.2781 170.887 11.0591 170.245 11.0591C169.017 11.0591 168.04 12.0446 168.04 13.249C168.04 13.9881 168.403 14.563 168.905 14.9736L171.138 16.835C170.329 17.2182 169.38 17.4098 168.347 17.4098C164.58 17.3825 161.9 14.3987 161.9 10.8127ZM156.988 10.8127V10.8675C156.988 16.8076 161.705 21.6254 168.291 21.6254C170.664 21.6254 172.841 20.9684 174.627 19.8461L175.771 20.8589C176.134 21.2148 176.692 21.4885 177.334 21.4885C178.562 21.4885 179.539 20.5031 179.539 19.2986C179.539 18.5595 179.176 17.9847 178.674 17.5741L177.753 16.835C178.953 15.1104 179.65 13.0574 179.65 10.8401V10.7854C179.65 4.84525 174.934 0.0274585 168.347 0.0274585C161.761 8.47016e-05 156.988 4.87263 156.988 10.8127Z" fill="#5A2D88"/>
<mask id="mask0_9068_28231" style="mask-type:luminance" maskUnits="userSpaceOnUse" x="156" y="0" width="24" height="22">
<path d="M161.9 10.8127V10.758C161.9 7.17203 164.524 4.24303 168.291 4.24303C172.059 4.24303 174.738 7.22678 174.738 10.8127V10.8675C174.738 11.9077 174.515 12.8932 174.152 13.7417L171.808 11.6887C171.334 11.2781 170.887 11.0591 170.245 11.0591C169.017 11.0591 168.04 12.0446 168.04 13.249C168.04 13.9881 168.403 14.563 168.905 14.9736L171.138 16.835C170.329 17.2182 169.38 17.4098 168.347 17.4098C164.58 17.3825 161.9 14.3987 161.9 10.8127ZM156.988 10.8127V10.8675C156.988 16.8076 161.705 21.6254 168.291 21.6254C170.664 21.6254 172.841 20.9684 174.627 19.8461L175.771 20.8589C176.134 21.2148 176.692 21.4885 177.334 21.4885C178.562 21.4885 179.539 20.5031 179.539 19.2986C179.539 18.5595 179.176 17.9847 178.674 17.5741L177.753 16.835C178.953 15.1104 179.65 13.0574 179.65 10.8401V10.7854C179.65 4.84525 174.934 0.0274585 168.347 0.0274585C161.761 8.47016e-05 156.988 4.87263 156.988 10.8127Z" fill="white"/>
</mask>
<g mask="url(#mask0_9068_28231)">
<path d="M179.623 0H156.988V21.6253H179.623V0Z" fill="#5A2D88"/>
</g>
<path d="M197.233 0.109375C196.033 0.109375 195.224 0.848468 194.861 1.94342L190.591 14.6175L186.349 1.83393C186.042 0.875842 185.149 0.191496 184.06 0.191496C182.748 0.191496 181.66 1.14958 181.66 2.43615C181.66 2.70989 181.744 3.03837 181.855 3.31211L187.828 19.709C188.247 20.8861 189.14 21.5978 190.256 21.5978H190.73C191.847 21.5978 192.712 20.9135 193.131 19.709L197.345 7.74667L201.531 19.709C201.95 20.9135 202.815 21.5978 203.931 21.5978H204.406C205.522 21.5978 206.415 20.8861 206.834 19.709L212.807 3.28474C212.89 3.011 213.002 2.65514 213.002 2.3814C213.002 1.12221 211.969 0.164123 210.685 0.164123C209.541 0.164123 208.732 0.903216 208.425 1.80655L204.183 14.6175L199.968 1.94342C199.606 0.848468 198.768 0.109375 197.596 0.109375H197.233V0.109375Z" fill="#5A2D88"/>
<mask id="mask1_9068_28231" style="mask-type:luminance" maskUnits="userSpaceOnUse" x="181" y="0" width="33" height="22">
<path d="M197.233 0.109375C196.033 0.109375 195.224 0.848468 194.861 1.94342L190.591 14.6175L186.349 1.83393C186.042 0.875842 185.149 0.191496 184.06 0.191496C182.748 0.191496 181.66 1.14958 181.66 2.43615C181.66 2.70989 181.744 3.03837 181.855 3.31211L187.828 19.709C188.247 20.8861 189.14 21.5978 190.256 21.5978H190.73C191.847 21.5978 192.712 20.9135 193.131 19.709L197.345 7.74667L201.531 19.709C201.95 20.9135 202.815 21.5978 203.931 21.5978H204.406C205.522 21.5978 206.415 20.8861 206.834 19.709L212.807 3.28474C212.89 3.011 213.002 2.65514 213.002 2.3814C213.002 1.12221 211.969 0.164123 210.685 0.164123C209.541 0.164123 208.732 0.903216 208.425 1.80655L204.183 14.6175L199.968 1.94342C199.606 0.848468 198.768 0.109375 197.596 0.109375H197.233V0.109375Z" fill="white"/>
</mask>
<g mask="url(#mask1_9068_28231)">
<path d="M213.002 0.109375H181.66V21.5704H213.002V0.109375Z" fill="#5A2D88"/>
</g>
<path d="M229.83 1.53373L224.555 8.89729L219.364 1.58848C218.778 0.739894 218.108 0.192418 217.047 0.192418C215.736 0.192418 214.703 1.17788 214.703 2.4097C214.703 3.06667 214.954 3.61415 215.289 4.05213L222.155 13.2224V19.1625C222.155 20.449 223.188 21.4619 224.499 21.4619C225.811 21.4619 226.844 20.449 226.844 19.1625V13.1402L233.709 4.02475C234.016 3.61415 234.323 3.0393 234.323 2.4097C234.323 1.1505 233.458 0.165044 232.035 0.165044C231.086 0.13767 230.388 0.685146 229.83 1.53373Z" fill="#5A2D88"/>
<mask id="mask2_9068_28231" style="mask-type:luminance" maskUnits="userSpaceOnUse" x="214" y="0" width="21" height="22">
<path d="M229.83 1.53373L224.555 8.89729L219.364 1.58848C218.778 0.739894 218.108 0.192418 217.047 0.192418C215.736 0.192418 214.703 1.17788 214.703 2.4097C214.703 3.06667 214.954 3.61415 215.289 4.05213L222.155 13.2224V19.1625C222.155 20.449 223.188 21.4619 224.499 21.4619C225.811 21.4619 226.844 20.449 226.844 19.1625V13.1402L233.709 4.02475C234.016 3.61415 234.323 3.0393 234.323 2.4097C234.323 1.1505 233.458 0.165044 232.035 0.165044C231.086 0.13767 230.388 0.685146 229.83 1.53373Z" fill="white"/>
</mask>
<g mask="url(#mask2_9068_28231)">
<path d="M234.351 0.136719H214.73V21.4336H234.351V0.136719Z" fill="#5A2D88"/>
</g>
<path d="M157.212 27.1819C157.212 28.4958 158.077 28.8791 159.445 29.2075C160.561 29.4813 160.784 29.6729 160.784 30.0561V30.0835C160.784 30.4667 160.422 30.7131 159.808 30.7131C159.166 30.7131 158.608 30.4941 158.077 30.1109C157.994 30.0561 157.854 29.974 157.659 29.974C157.268 29.974 156.961 30.2751 156.961 30.631C156.961 30.85 157.073 31.069 157.24 31.1785C157.994 31.6986 158.887 31.9723 159.752 31.9723C161.203 31.9723 162.208 31.2332 162.208 29.9193V29.8919C162.208 28.7422 161.454 28.2768 160.087 27.921C158.915 27.6199 158.635 27.483 158.635 27.045V27.0176C158.635 26.6892 158.942 26.4428 159.501 26.4428C159.975 26.4428 160.422 26.607 160.924 26.8808C161.036 26.9355 161.147 26.9903 161.287 26.9903C161.678 26.9903 161.985 26.6892 161.985 26.3333C161.985 26.0596 161.817 25.8406 161.65 25.7584C161.036 25.3752 160.338 25.1836 159.529 25.1836C158.189 25.1836 157.212 25.9774 157.212 27.1819Z" fill="#5A2D88"/>
<path d="M167.621 28.578C167.621 27.4283 168.458 26.4976 169.63 26.4976C170.83 26.4976 171.668 27.4283 171.668 28.578V28.6054C171.668 29.7277 170.831 30.6584 169.658 30.6584C168.486 30.6584 167.621 29.7003 167.621 28.578ZM166.086 28.578C166.086 30.4668 167.565 31.9723 169.658 31.9723C171.724 31.9723 173.231 30.4394 173.231 28.578V28.5506C173.231 26.6892 171.752 25.1562 169.658 25.1562C167.593 25.1836 166.086 26.7166 166.086 28.578Z" fill="#5A2D88"/>
<path d="M177.78 25.293C177.362 25.293 177.055 25.6215 177.055 26.0047V31.2057C177.055 31.6163 177.39 31.9174 177.78 31.9174C178.171 31.9174 178.506 31.5889 178.506 31.2057V29.3169H181.102C181.464 29.3169 181.771 29.0158 181.771 28.6599C181.771 28.3041 181.464 28.003 181.102 28.003H178.506V26.6069H181.52C181.883 26.6069 182.19 26.3058 182.19 25.9499C182.19 25.5941 181.883 25.293 181.52 25.293H177.78Z" fill="#5A2D88"/>
<path d="M186.74 25.293C186.377 25.293 186.07 25.5941 186.07 25.9499C186.07 26.3058 186.377 26.6069 186.74 26.6069H188.163V31.2057C188.163 31.6163 188.498 31.9174 188.889 31.9174C189.308 31.9174 189.615 31.5889 189.615 31.2057V26.6343H191.038C191.401 26.6343 191.708 26.3332 191.708 25.9773C191.708 25.6215 191.401 25.3203 191.038 25.3203H186.74V25.293Z" fill="#5A2D88"/>
<path d="M200.471 25.2109C200.108 25.2109 199.829 25.4573 199.717 25.7858L198.377 29.7824L197.038 25.7584C196.954 25.4573 196.675 25.2383 196.312 25.2383C195.894 25.2383 195.559 25.5394 195.559 25.95C195.559 26.0322 195.587 26.1416 195.614 26.2238L197.484 31.3974C197.624 31.7533 197.903 31.9996 198.266 31.9996H198.405C198.768 31.9996 199.019 31.7807 199.159 31.3974L200.471 27.6198L201.782 31.3974C201.922 31.7807 202.173 31.9996 202.536 31.9996H202.703C203.066 31.9996 203.345 31.7807 203.457 31.3974L205.327 26.2238C205.355 26.1416 205.383 26.0322 205.383 25.95C205.383 25.5668 205.048 25.2657 204.657 25.2657C204.294 25.2657 204.043 25.512 203.959 25.7858L202.62 29.8371L201.28 25.8405C201.168 25.4847 200.917 25.2657 200.526 25.2657H200.471V25.2109Z" fill="#5A2D88"/>
<path d="M212.583 26.9355L213.504 29.0981H211.634L212.583 26.9355ZM212.555 25.1836C212.164 25.1836 211.857 25.4026 211.69 25.7584L209.345 30.9321C209.29 31.0416 209.262 31.1511 209.262 31.2332C209.262 31.6164 209.569 31.9176 209.932 31.9176C210.239 31.9176 210.49 31.7533 210.601 31.4522L211.076 30.3572H214.062L214.509 31.3975C214.648 31.6986 214.871 31.8902 215.206 31.8902C215.597 31.8902 215.904 31.5891 215.904 31.2058C215.904 31.1237 215.876 31.0142 215.82 30.9047L213.504 25.7584C213.336 25.4026 213.057 25.1836 212.639 25.1836H212.555Z" fill="#5A2D88"/>
<path d="M221.237 26.6069H222.716C223.442 26.6069 223.888 26.9354 223.888 27.5376V27.565C223.888 28.1125 223.47 28.4957 222.744 28.4957H221.237V26.6069ZM220.483 25.293C220.065 25.293 219.758 25.6215 219.758 26.0047V31.2057C219.758 31.6163 220.093 31.9174 220.483 31.9174C220.902 31.9174 221.209 31.5889 221.209 31.2057V29.7549H222.381L223.833 31.5342C224 31.7532 224.223 31.9174 224.558 31.9174C224.921 31.9174 225.256 31.6437 225.256 31.2605C225.256 31.0415 225.172 30.8772 225.005 30.713L223.972 29.4812C224.781 29.1527 225.312 28.5231 225.312 27.4829V27.4555C225.312 26.8259 225.116 26.3058 224.726 25.9499C224.279 25.512 223.609 25.293 222.772 25.293H220.483Z" fill="#5A2D88"/>
<path d="M229.917 25.293C229.498 25.293 229.191 25.6215 229.191 26.0047V31.151C229.191 31.5616 229.526 31.8627 229.917 31.8627H233.685C234.048 31.8627 234.355 31.589 234.355 31.2331C234.355 30.8773 234.048 30.5761 233.685 30.5761H230.643V29.1801H233.21C233.573 29.1801 233.88 28.9063 233.88 28.5505C233.88 28.1946 233.573 27.8935 233.21 27.8935H230.643V26.5522H233.629C233.992 26.5522 234.299 26.2785 234.299 25.9226C234.299 25.5667 233.992 25.2656 233.629 25.2656H229.917V25.293Z" fill="#5A2D88"/>
<path d="M38.0125 31.9996C37.9288 31.9996 37.873 31.9996 37.7892 31.9996C35.389 31.8901 33.4912 29.8918 33.4912 27.4556V19.7361L33.1563 19.8456C29.0537 21.0501 25.565 21.6249 22.1601 21.6249C22.0485 21.6249 21.9368 21.6249 21.8531 21.6249C13.6199 21.5428 5.66583 19.0244 2.03764 15.3837C0.670091 14.015 0.000271894 12.5368 0.028181 11.0586C0.0839993 8.32125 2.34464 5.72074 6.39146 3.6677C10.522 1.58729 16.0201 0.410216 21.8252 0.355469C21.9368 0.355469 22.0206 0.355469 22.1322 0.355469C27.6861 0.355469 33.1005 1.8884 38.2358 4.89952L38.4032 5.00902L38.6544 4.76265C40.1336 3.31184 41.6686 1.83366 43.5385 1.09456C43.9292 0.930319 44.3758 0.79345 44.8223 0.711328C45.6596 0.519712 46.5248 0.410216 47.3621 0.410216C48.5342 0.410216 49.6506 0.574459 50.6833 0.930319C52.609 1.55992 54.2835 2.76437 55.5394 3.72245L55.5953 3.7772C56.8512 4.76265 58.1629 5.77549 59.6421 6.51458C61.0375 7.19892 62.5446 7.55478 64.1355 7.55478C65.6705 7.55478 67.2055 7.2263 68.7684 6.5967C69.9126 6.13135 71.0569 5.447 72.257 4.51629L72.4524 4.37942C73.5687 3.53083 74.6851 2.65487 75.941 1.97052C77.2527 1.2588 78.5924 0.766076 79.9599 0.574459C80.4344 0.492338 80.9368 0.464964 81.4112 0.464964C82.6392 0.464964 83.8672 0.711328 84.9278 1.14931C86.686 1.86103 88.1373 2.92861 89.6723 4.02356C90.5654 4.68053 91.4864 5.3375 92.4911 5.9671C94.2215 7.03468 96.0914 7.55478 98.1288 7.55478C98.4637 7.55478 98.7986 7.52741 99.1335 7.50004C100.11 7.41792 101.087 7.19892 102.064 6.81569C103.878 6.10397 105.413 4.98164 106.892 3.88669C107.73 3.25709 108.623 2.6275 109.516 2.08002C111.218 1.03981 113.228 0.464964 115.153 0.464964C116.019 0.464964 116.856 0.574459 117.665 0.79345C119.954 1.42305 121.768 2.65487 123.442 3.88669C123.749 4.10568 124.056 4.35205 124.363 4.57104C126.261 5.99448 127.908 7.25367 131.703 7.55478C131.843 7.55478 132.01 7.58216 132.15 7.58216C132.317 7.58216 132.485 7.58216 132.652 7.58216C133.908 7.52741 135.136 7.25367 136.336 6.73357C138.206 5.91236 139.63 4.59841 140.802 3.42134C141.974 2.21689 143.369 0.930319 145.1 0.656581C145.323 0.629207 145.546 0.601833 145.77 0.601833C147.947 0.601833 149.956 2.16214 150.319 4.16043C150.71 6.26821 149.816 8.12963 148.868 9.85419C147.891 11.6609 146.719 13.4402 145.407 15.1373C141.862 19.7635 137.313 23.7053 132.29 26.5248C129.889 27.8662 127.824 28.8242 125.787 29.536L125.619 29.5907C123.414 30.3572 121.07 30.9594 118.67 31.3974C116.298 31.808 113.842 32.027 111.386 32.027H110.911C109.572 32.027 108.288 31.9996 107.088 31.5069C105.134 30.7404 104.018 29.098 104.101 27.1544C104.213 24.6908 106.334 22.7746 108.93 22.7746C109.013 22.7746 109.125 22.7746 109.209 22.7746C109.851 22.802 110.493 22.8294 111.162 22.8294C114.26 22.8294 117.358 22.3914 120.4 21.5154C123.666 20.5573 126.764 19.1339 129.61 17.2725C129.638 17.2451 129.666 17.2451 129.694 17.2177C129.75 17.1904 129.806 17.1356 129.861 17.1082L130.364 16.6976L129.722 16.6429C129.415 16.6155 129.192 16.5881 128.94 16.5608C126.903 16.2597 125.033 15.6301 122.8 14.5625C121.405 13.9055 120.177 12.9748 119.144 12.1536C118.949 12.0167 118.782 11.8525 118.586 11.6882C117.637 10.8944 116.577 10.0184 115.209 10.0184C113.73 10.0184 112.586 10.9765 111.386 11.9893C111.246 12.0988 111.107 12.2083 110.967 12.3178C107.506 15.1647 102.818 16.7798 98.045 16.7798C97.7939 16.7798 97.5427 16.7798 97.3194 16.7798C92.7144 16.6155 88.1094 14.7267 84.6208 11.6609C83.6439 10.7849 82.6392 10.0184 81.2717 10.0184C81.1321 10.0184 80.9926 10.0184 80.8809 10.0458C79.5971 10.1827 78.6761 10.9765 77.7551 11.743C77.6156 11.8525 77.476 11.9893 77.3365 12.0988C75.2712 13.8234 73.0106 15.0552 70.4429 15.8764C68.4335 16.506 66.3682 16.8345 64.3029 16.8345C63.8005 16.8345 63.2982 16.8071 62.8237 16.7798C60.3956 16.5881 58.1071 16.0407 56.0697 15.11C54.144 14.234 52.4415 13.1117 50.3483 11.3597C49.4273 10.5659 48.3947 10.1553 47.39 10.1553C46.9992 10.1553 46.6085 10.21 46.2457 10.3469C45.6875 10.5112 45.1852 10.7849 44.7386 11.1681C43.8734 11.8798 43.2315 12.9748 42.8408 14.4804C42.5617 15.6027 42.5617 16.7798 42.5896 17.9021C42.5896 18.2306 42.6175 18.5317 42.6175 18.8328V27.6472C42.5896 30.0287 40.5243 31.9996 38.0125 31.9996ZM20.5972 9.33408C16.9132 9.33408 12.8664 9.99105 11.0802 10.6207L10.8848 10.7028L10.215 10.9491L11.0802 11.2503C12.8943 11.8798 16.9411 12.5368 20.5972 12.5368C24.2812 12.5368 28.328 11.8798 30.1142 11.2503L30.9515 10.9491L30.3096 10.7028L30.1142 10.648C28.328 10.0184 24.2812 9.33408 20.5972 9.33408Z" fill="url(#paint0_linear_9068_28231)"/>
<defs>
<linearGradient id="paint0_linear_9068_28231" x1="0.000271896" y1="16.1686" x2="150.451" y2="16.1686" gradientUnits="userSpaceOnUse">
<stop stop-color="#EE4567"/>
<stop offset="1" stop-color="#5A2D88"/>
</linearGradient>
</defs>
</svg>
